<svg xmlns="http://www.w3.org/2000/svg" height="1em" width="1em" viewBox="0 0 1024 512">
  <!-- Palette -->
  <path d="M512 256c0 .9 0 1.8 0 2.7c-.4 36.5-33.6 61.3-70.1 61.3L344 320c-26.5 0-48 21.5-48 48c0 3.4 .4 6.7 1 9.9c2.1 10.2 6.5 20 10.8 29.9c6.1 13.8 12.1 27.5 12.1 42c0 31.8-21.6 60.7-53.4 62c-3.5 .1-7 .2-10.6 .2C114.6 512 0 397.4 0 256S114.6 0 256 0S512 114.6 512 256zM128 288a32 32 0 1 0 -64 0 32 32 0 1 0 64 0zm0-96a32 32 0 1 0 0-64 32 32 0 1 0 0 64zM288 96a32 32 0 1 0 -64 0 32 32 0 1 0 64 0zm96 96a32 32 0 1 0 0-64 32 32 0 1 0 0 64z"/>

  <!-- Group Objects -->
  <path d="M600 119.4C580.9 108.4 568 87.7 568 64C568 28.7 596.7 0 632 0c23.7 0 44.4 12.9 55.4 32h337.1C1035.6 12.9 1056.3 0 1080 0c35.3 0 64 28.7 64 64c0 23.7-12.9 44.4-32 55.4v273.1c19.1 11.1 32 31.7 32 55.4c0 35.3-28.7 64-64 64c-23.7 0-44.4-12.9-55.4-32H687.4c-11.1 19.1-31.7 32-55.4 32c-35.3 0-64-28.7-64-64c0-23.7 12.9-44.4 32-55.4V119.4zM1024.6 96H687.4c-5.6 9.7-13.7 17.8-23.4 23.4v273.1c9.7 5.6 17.8 13.7 23.4 23.4h337.1c5.6-9.7 13.7-17.8 23.4-23.4V119.4c-9.7-5.6-17.8-13.7-23.4-23.4zM696 160c0-17.7 14.3-32 32-32h128c17.7 0 32 14.3 32 32v96c0 17.7-14.3 32-32 32H728c-17.7 0-32-14.3-32-32v-96zM824 320h32c35.3 0 64-28.7 64-64v-32h64c17.7 0 32 14.3 32 32v96c0 17.7-14.3 32-32 32H824c-17.7 0-32-14.3-32-32v-32z"/>
</svg>
