<svg xmlns="http://www.w3.org/2000/svg" height="1em" width="1em" viewBox="0 0 512 512">
  <!-- Globe Background -->
  <path d="M256 0C114.6 0 0 114.6 0 256s114.6 256 256 256 256-114.6 256-256S397.4 0 256 0zM464 240h-87.3c-2.4-54.4-13.1-105.5-30.3-150.2C416.6 120.4 453.5 175.9 464 240zM256 464c-27.6-33.5-47.5-79.4-58.2-128h116.4c-10.7 48.6-30.6 94.5-58.2 128zM197.1 304c-3.3-18.8-5.5-38.4-6.4-58.2h130.7c-.9 19.8-3.1 39.4-6.4 58.2H197.1zM186.2 208c.9-19.8 3.1-39.4 6.4-58.2h116.8c3.3 18.8 5.5 38.4 6.4 58.2H186.2zM312.4 144H199.6C209.4 95.4 230.2 49.7 256 16c25.8 33.7 46.6 79.4 56.4 128zm-183 7.8c-7.6 25.8-12.9 54.3-14.8 84.2H64c10.5-64.1 47.4-119.6 101.7-150.2c-15.4 34.8-27.2 76.8-36.3 121.8zm0 208.4c9.1 45 20.9 87 36.3 121.8C111.4 391.6 74.5 336.1 64 272h50.5c1.9 29.9 7.2 58.4 14.8 84.2zM312.4 368c9.8 48.6 30.6 94.5 56.4 128c25.8-33.7 46.6-79.4 56.4-128H312.4zM377.7 368h87.3c-10.5 64.1-47.4 119.6-101.7 150.2c15.4-34.8 27.2-76.8 36.3-121.8z" />

  <!-- Magnifying Glass Overlay -->
  <path d="M500.3 471.7l-77.2-77.2C443.2 354.2 448 306.7 448 256C448 132.3 355.7 40 232 40S16 132.3 16 256s92.3 216 216 216c50.7 0 98.2-4.8 138.5-24.9l77.2 77.2c4.7 4.7 10.9 7 17 7s12.3-2.3 17-7l33.6-33.6c4.7-4.7 7-10.9 7-17s-2.3-12.3-7-17zM232 400c-79.4 0-144-64.6-144-144s64.6-144 144-144s144 64.6 144 144S311.4 400 232 400z" transform="translate(-80 -80) scale(0.8)" />
</svg>
